<?xml version="1.0" encoding="UTF-8" standalone="no"?>
<svg
   id="Layer_1"
   data-name="Layer 1"
   viewBox="0 0 266.59 214.07169"
   data-imageid="lap-top-two-color"
   imageName="Lap top"
   class="illustrations_image"
   version="1.1"
   sodipodi:docname="work-steps.svg"
   width="266.59"
   height="214.07169"
   inkscape:version="1.1.2 (0a00cf5339, 2022-02-04)"
   xmlns:inkscape="http://www.inkscape.org/namespaces/inkscape"
   xmlns:sodipodi="http://sodipodi.sourceforge.net/DTD/sodipodi-0.dtd"
   xmlns="http://www.w3.org/2000/svg"
   xmlns:svg="http://www.w3.org/2000/svg"
   xmlns:rdf="http://www.w3.org/1999/02/22-rdf-syntax-ns#"
   xmlns:cc="http://creativecommons.org/ns#"
   xmlns:dc="http://purl.org/dc/elements/1.1/">
  <defs
     id="defs59" />
  <sodipodi:namedview
     id="namedview57"
     pagecolor="#ffffff"
     bordercolor="#666666"
     borderopacity="1.0"
     inkscape:pageshadow="2"
     inkscape:pageopacity="0.0"
     inkscape:pagecheckerboard="0"
     showgrid="false"
     fit-margin-top="0"
     fit-margin-left="0"
     fit-margin-right="0"
     fit-margin-bottom="0"
     inkscape:zoom="1.3105046"
     inkscape:cx="210.6059"
     inkscape:cy="100.34303"
     inkscape:window-width="1314"
     inkscape:window-height="704"
     inkscape:window-x="52"
     inkscape:window-y="27"
     inkscape:window-maximized="1"
     inkscape:current-layer="Layer_1" />
  <title
     id="title2">_</title>
  <path
     d="m 100.57,199.11168 c -7.900005,4.4 -17.700005,4.94 -26.900005,4.79 -8.46,-0.14 -17,-0.71 -25,-3.55 -8,-2.84 -15.34,-8.21 -19,-15.85 -3.92,-8.25 -6.87,-48.74 -7.63,-60.8 -0.49,-7.79 -0.64,-15.86 2.27,-23.11 3.34,-8.249999 10.39,-14.559999 18.36,-18.559999 7.97,-4 16.86,-5.67 25.69,-6.7 10.92,-1.29 22.18,-1.54 32.720005,1.6 10.54,3.14 20.34,10.1 24.88,20.1 2.47,5.459999 3.29,11.529999 3.48,17.519999 0.51,15.46 -2.93,30.72 -7.46,45.41 -3.82,12.34 -7.17,28.46 -18,36.85 a 26.72,26.72 0 0 1 -3.41,2.3 z"
     fill="#24285b"
     id="path4" />
  <path
     d="m 152.7,65.511681 c 0,0 12.53,26.09 1.07,57.999999 -11.46,31.91 13.53,48.08 -34.87,52.36 -48.400005,4.28 33.8,-110.359999 33.8,-110.359999 z"
     fill="#2196f3"
     class="target-color"
     id="path6" />
  <path
     d="m 152.7,65.511681 c 0,0 12.53,26.09 1.07,57.999999 -11.46,31.91 13.53,48.08 -34.87,52.36 -48.400005,4.28 33.8,-110.359999 33.8,-110.359999 z"
     fill="#ffffff"
     opacity="0.46"
     id="path8" />
  <path
     d="m 128.18,14.501681 c 0,0 -1.08,8 -3.59,13 a 4.08,4.08 0 0 1 -5.5,1.78 c -2.48,-1.3 -5.45,-3.78 -5.39,-8.16 l -0.82,-7.46 a 7.29,7.29 0 0 1 4.84,-6.9 c 5.19,-2.2 11.37,2.87 10.46,7.74 z"
     fill="#f4a28c"
     id="path10" />
  <polygon
     points="176.66,87.98 183.2,69.78 180.35,58.73 164.31,79.98 "
     fill="#f4a28c"
     id="polygon12"
     transform="translate(-66.700005,-42.968319)" />
  <path
     d="m 127.24,19.541681 1.52,3.55 a 1.3,1.3 0 0 1 -1.24,1.81 l -3.16,-0.11 z"
     fill="#f4a28c"
     id="path14" />
  <path
     d="m 116.3,27.321681 c 0,0 -3.65,-4 -4.1,-6.43 0,0 -3.92,9.88 0.9,15.31 z"
     fill="#ce8172"
     opacity="0.31"
     id="path16" />
  <path
     d="m 117.86,18.091681 c 0,0 0.62,-3.06 -1.72,-3.34 -2.34,-0.28 -3.28,4.14 -0.25,5.25 z"
     fill="#f4a28c"
     id="path18" />
  <path
     d="m 110.76,10.791681 0.41,3.36 c 0,0 -1.08,7.71 2,13.25 3.08,5.54 9.85,7.57 12.49,2.95 3,-5.3 -1.29,-5.56 -6.18,-7.93 -4.89,-2.37 -1.27,-8.74 -1.27,-8.74 a 6.2,6.2 0 0 0 5.78,-0.45 l 3.57,-0.24 a 5.64,5.64 0 0 0 5.15,-6.83 7.56,7.56 0 0 0 -3.1,-4.92 c -4.79,-3.11 -20.31,-0.54000004 -18.85,9.55 z"
     fill="#24285b"
     id="path20" />
  <path
     d="m 114.81,13.341681 c 0,0 -2.71,-3.7 -5.3,-1.39 -2.59,2.31 0.5,6.3 4,5.72 a 6.46,6.46 0 0 1 1.3,-4.33 z"
     fill="#f4a28c"
     id="path22" />
  <path
     d="m 120.13,35.191681 -14.49,-2.5 c 0,0 -48.220005,0.07 -56.660005,16.58 -8.44,16.51 -6.66,77.999999 21.22,128.429999 l 57.100005,1.65 c 0,0 -3.17,-37.06 7.47,-57.24 10.64,-20.18 43.73,-63.079999 -14.64,-86.919999 z"
     fill="#2196f3"
     class="target-color"
     id="path24" />
  <path
     d="m 75.099995,55.191681 c 0,0 15.83,13.88 12.65,29.2 -0.51,2.48 -1,5.47 -1.58,8.75 A 87.4,87.4 0 0 0 106.7,164.73168 l 10,11.4 -46.470005,1.57 -4,-7.79 -21.69,-36 z"
     opacity="0.08"
     id="path26" />
  <path
     d="m 48.179995,50.791681 c -10.58,14.89 -20,47.77 -11.82,94.089999 a 31.06,31.06 0 0 0 28.66,25.54 l 43.630005,2.76 v -14.23 l -33.160005,-4.8 a 12.71,12.71 0 0 1 -10.34,-16.29 c 5.84,-19.23 14.89,-54.069999 12.55,-78.909999 -1.4,-15.08 -20.75,-20.51 -29.52,-8.16 z"
     fill="#2196f3"
     class="target-color"
     id="path28" />
  <path
     d="m 48.179995,50.791681 c -10.58,14.89 -20,47.77 -11.82,94.089999 a 31.06,31.06 0 0 0 28.66,25.54 l 43.630005,2.76 v -14.23 l -33.160005,-4.8 a 12.71,12.71 0 0 1 -10.34,-16.29 c 5.84,-19.23 14.89,-54.069999 12.55,-78.909999 -1.4,-15.08 -20.75,-20.51 -29.52,-8.16 z"
     fill="#ffffff"
     opacity="0.46"
     id="path30" />
  <path
     d="m 109.6,161.59168 c 0,0 19,-0.48 16.33,9.44 -2.67,9.92 -16.33,2.15 -16.33,2.15 z"
     fill="#f4a28c"
     id="path32" />
  <polygon
     points="193.54,159.8 186.86,212.12 151.56,212.61 151.56,221.17 259.68,221.17 270.54,159.8 "
     fill="#ffd200"
     id="polygon34"
     transform="translate(-66.700005,-42.968319)" />
  <circle
     cx="162.32001"
     cy="146.26167"
     r="7.71"
     fill="#ffffff"
     id="circle36" />
  <rect
     x="-266.59"
     y="-214.07169"
     width="266.59"
     height="37.310001"
     transform="scale(-1)"
     fill="#e6e6e6"
     id="rect38" />
  <rect
     x="0.0099945068"
     y="176.75168"
     width="74.779999"
     height="37.310001"
     opacity="0.09"
     id="rect40" />
  <path
     d="m 227.89,168.19168 c 0,0 -7.9,-2.16 -9.62,-9.51 0,0 12.24,-2.47 12.59,10.16 z"
     fill="#2196f3"
     opacity="0.58"
     class="target-color"
     id="path42" />
  <path
     d="m 228.86,167.41168 c 0,0 -5.52,-8.73 -0.66,-16.88 0,0 9.3,5.91 5.17,16.9 z"
     fill="#2196f3"
     opacity="0.73"
     class="target-color"
     id="path44" />
  <path
     d="m 230.3,167.41168 c 0,0 2.92,-9.21 11.73,-10.95 0,0 1.65,6 -5.71,11 z"
     fill="#2196f3"
     class="target-color"
     id="path46" />
  <polygon
     points="302.94,221.17 304.42,210.23 291.25,210.18 292.85,221.13 "
     fill="#24285b"
     id="polygon48"
     transform="translate(-66.700005,-42.968319)" />
  <polygon
     points="256.92,136.35 256.92,150.5 267.58,136.35 297.84,136.35 297.84,105.03 238.45,105.03 238.45,136.35 "
     fill="#e6e6e6"
     id="polygon50"
     transform="translate(-66.700005,-42.968319)" />
  <polygon
     points="225.3,96.86 231.64,96.86 231.64,109.46 238.81,96.86 270.54,96.86 270.54,67.87 225.3,67.87 "
     fill="#e6e6e6"
     id="polygon52"
     transform="translate(-66.700005,-42.968319)" />
  <polygon
     points="279.64,89.77 299.56,89.77 304.5,96.06 304.5,89.77 308.87,89.77 308.87,64.75 279.64,64.75 "
     fill="#e6e6e6"
     id="polygon54"
     transform="translate(-66.700005,-42.968319)" />
  <metadata
     id="metadata2326">
    <rdf:RDF>
      <cc:Work
         rdf:about="">
        <dc:title>_</dc:title>
      </cc:Work>
    </rdf:RDF>
  </metadata>
</svg>
